<svg xmlns="http://www.w3.org/2000/svg" viewBox="0 0 512 512" width="512" height="512">
  <!-- Corded: three strands braided together. Generated; edit freely. -->
  <rect x="56" y="56" width="400" height="400" rx="90" ry="90" fill="#1E3B2A"/>
  <path d="M96.00,256.00 L100.00,262.43 L104.00,268.83 L108.00,275.14 L112.00,281.34 L116.00,287.38 L120.00,293.23 L124.00,298.84 L128.00,304.20 L132.00,309.25 L136.00,313.98 L140.00,318.35 L144.00,322.34 L148.00,325.92 L152.00,329.06 L156.00,331.76 L160.00,333.99 L164.00,335.73 L168.00,336.99 L172.00,337.75 L176.00,338.00 L180.00,337.75 L184.00,336.99 L188.00,335.73 L192.00,333.99 L196.00,331.76 L200.00,329.06 L204.00,325.92 L208.00,322.34 L212.00,318.35 L216.00,313.98 L220.00,309.25 L224.00,304.20 L228.00,298.84 L232.00,293.23 L236.00,287.38 L240.00,281.34 L244.00,275.14 L248.00,268.83 L252.00,262.43 L256.00,256.00 L260.00,249.57 L264.00,243.17 L268.00,236.86 L272.00,230.66 L276.00,224.62 L280.00,218.77 L284.00,213.16 L288.00,207.80 L292.00,202.75 L296.00,198.02 L300.00,193.65 L304.00,189.66 L308.00,186.08 L312.00,182.94 L316.00,180.24 L320.00,178.01 L324.00,176.27 L328.00,175.01 L332.00,174.25 L336.00,174.00 L340.00,174.25 L344.00,175.01 L348.00,176.27 L352.00,178.01 L356.00,180.24 L360.00,182.94 L364.00,186.08 L368.00,189.66 L372.00,193.65 L376.00,198.02 L380.00,202.75 L384.00,207.80 L388.00,213.16 L392.00,218.77 L396.00,224.62 L400.00,230.66 L404.00,236.86 L408.00,243.17 L412.00,249.57 L416.00,256.00" stroke="#FFFFFF" stroke-width="30" fill="none" stroke-linecap="round" stroke-linejoin="round"/>
  <path d="M96.00,327.01 L100.00,323.58 L104.00,319.73 L108.00,315.48 L112.00,310.87 L116.00,305.92 L120.00,300.66 L124.00,295.13 L128.00,289.35 L132.00,283.37 L136.00,277.22 L140.00,270.94 L144.00,264.57 L148.00,258.15 L152.00,251.71 L156.00,245.30 L160.00,238.95 L164.00,232.71 L168.00,226.61 L172.00,220.70 L176.00,215.00 L180.00,209.55 L184.00,204.40 L188.00,199.55 L192.00,195.06 L196.00,190.95 L200.00,187.23 L204.00,183.94 L208.00,181.09 L212.00,178.70 L216.00,176.79 L220.00,175.37 L224.00,174.45 L228.00,174.03 L232.00,174.11 L236.00,174.70 L240.00,175.79 L244.00,177.38 L248.00,179.45 L252.00,181.99 L256.00,184.99 L260.00,188.42 L264.00,192.27 L268.00,196.52 L272.00,201.13 L276.00,206.08 L280.00,211.34 L284.00,216.87 L288.00,222.65 L292.00,228.63 L296.00,234.78 L300.00,241.06 L304.00,247.43 L308.00,253.85 L312.00,260.29 L316.00,266.70 L320.00,273.05 L324.00,279.29 L328.00,285.39 L332.00,291.30 L336.00,297.00 L340.00,302.45 L344.00,307.60 L348.00,312.45 L352.00,316.94 L356.00,321.05 L360.00,324.77 L364.00,328.06 L368.00,330.91 L372.00,333.30 L376.00,335.21 L380.00,336.63 L384.00,337.55 L388.00,337.97 L392.00,337.89 L396.00,337.30 L400.00,336.21 L404.00,334.62 L408.00,332.55 L412.00,330.01 L416.00,327.01" stroke="#FFFFFF" stroke-width="30" fill="none" stroke-linecap="round" stroke-linejoin="round"/>
  <path d="M96.00,184.99 L100.00,181.99 L104.00,179.45 L108.00,177.38 L112.00,175.79 L116.00,174.70 L120.00,174.11 L124.00,174.03 L128.00,174.45 L132.00,175.37 L136.00,176.79 L140.00,178.70 L144.00,181.09 L148.00,183.94 L152.00,187.23 L156.00,190.95 L160.00,195.06 L164.00,199.55 L168.00,204.40 L172.00,209.55 L176.00,215.00 L180.00,220.70 L184.00,226.61 L188.00,232.71 L192.00,238.95 L196.00,245.30 L200.00,251.71 L204.00,258.15 L208.00,264.57 L212.00,270.94 L216.00,277.22 L220.00,283.37 L224.00,289.35 L228.00,295.13 L232.00,300.66 L236.00,305.92 L240.00,310.87 L244.00,315.48 L248.00,319.73 L252.00,323.58 L256.00,327.01 L260.00,330.01 L264.00,332.55 L268.00,334.62 L272.00,336.21 L276.00,337.30 L280.00,337.89 L284.00,337.97 L288.00,337.55 L292.00,336.63 L296.00,335.21 L300.00,333.30 L304.00,330.91 L308.00,328.06 L312.00,324.77 L316.00,321.05 L320.00,316.94 L324.00,312.45 L328.00,307.60 L332.00,302.45 L336.00,297.00 L340.00,291.30 L344.00,285.39 L348.00,279.29 L352.00,273.05 L356.00,266.70 L360.00,260.29 L364.00,253.85 L368.00,247.43 L372.00,241.06 L376.00,234.78 L380.00,228.63 L384.00,222.65 L388.00,216.87 L392.00,211.34 L396.00,206.08 L400.00,201.13 L404.00,196.52 L408.00,192.27 L412.00,188.42 L416.00,184.99" stroke="#FFFFFF" stroke-width="30" fill="none" stroke-linecap="round" stroke-linejoin="round"/>
  <path d="M96.67,326.47 L99.92,323.65 L103.17,320.56 L106.42,317.21 L109.67,313.60 L112.92,309.76 L116.17,305.71 L119.42,301.45 L122.67,297.00 L125.92,292.39 L129.17,287.63 L132.42,282.74 L135.67,277.74 L138.92,272.65 L142.17,267.50 L145.42,262.30 L148.67,257.07" stroke="#1E3B2A" stroke-width="50" fill="none" stroke-linecap="butt"/>
  <path d="M96.00,327.01 L98.93,324.54 L101.87,321.83 L104.80,318.91 L107.73,315.78 L110.67,312.45 L113.60,308.93 L116.53,305.23 L119.47,301.38 L122.40,297.37 L125.33,293.23 L128.27,288.96 L131.20,284.58 L134.13,280.11 L137.07,275.56 L140.00,270.94 L142.93,266.28 L145.87,261.58 L148.80,256.86 L151.73,252.14 L154.67,247.43" stroke="#FFFFFF" stroke-width="30" fill="none" stroke-linecap="round" stroke-linejoin="round"/>
  <path d="M150.00,185.53 L153.25,188.35 L156.50,191.44 L159.75,194.79 L163.00,198.40 L166.25,202.24 L169.50,206.29 L172.75,210.55 L176.00,215.00 L179.25,219.61 L182.50,224.37 L185.75,229.26 L189.00,234.26 L192.25,239.35 L195.50,244.50 L198.75,249.70 L202.00,254.93" stroke="#1E3B2A" stroke-width="50" fill="none" stroke-linecap="butt"/>
  <path d="M144.00,181.09 L147.20,183.33 L150.40,185.86 L153.60,188.67 L156.80,191.74 L160.00,195.06 L163.20,198.63 L166.40,202.42 L169.60,206.42 L172.80,210.62 L176.00,215.00 L179.20,219.54 L182.40,224.22 L185.60,229.03 L188.80,233.95 L192.00,238.95 L195.20,244.02 L198.40,249.14 L201.60,254.28 L204.80,259.43 L208.00,264.57" stroke="#FFFFFF" stroke-width="30" fill="none" stroke-linecap="round" stroke-linejoin="round"/>
  <path d="M203.33,326.47 L206.58,323.65 L209.83,320.56 L213.08,317.21 L216.33,313.60 L219.58,309.76 L222.83,305.71 L226.08,301.45 L229.33,297.00 L232.58,292.39 L235.83,287.63 L239.08,282.74 L242.33,277.74 L245.58,272.65 L248.83,267.50 L252.08,262.30 L255.33,257.07" stroke="#1E3B2A" stroke-width="50" fill="none" stroke-linecap="butt"/>
  <path d="M197.33,330.91 L200.53,328.67 L203.73,326.14 L206.93,323.33 L210.13,320.26 L213.33,316.94 L216.53,313.37 L219.73,309.58 L222.93,305.58 L226.13,301.38 L229.33,297.00 L232.53,292.46 L235.73,287.78 L238.93,282.97 L242.13,278.05 L245.33,273.05 L248.53,267.98 L251.73,262.86 L254.93,257.72 L258.13,252.57 L261.33,247.43" stroke="#FFFFFF" stroke-width="30" fill="none" stroke-linecap="round" stroke-linejoin="round"/>
  <path d="M256.67,185.53 L259.92,188.35 L263.17,191.44 L266.42,194.79 L269.67,198.40 L272.92,202.24 L276.17,206.29 L279.42,210.55 L282.67,215.00 L285.92,219.61 L289.17,224.37 L292.42,229.26 L295.67,234.26 L298.92,239.35 L302.17,244.50 L305.42,249.70 L308.67,254.93" stroke="#1E3B2A" stroke-width="50" fill="none" stroke-linecap="butt"/>
  <path d="M250.67,181.09 L253.87,183.33 L257.07,185.86 L260.27,188.67 L263.47,191.74 L266.67,195.06 L269.87,198.63 L273.07,202.42 L276.27,206.42 L279.47,210.62 L282.67,215.00 L285.87,219.54 L289.07,224.22 L292.27,229.03 L295.47,233.95 L298.67,238.95 L301.87,244.02 L305.07,249.14 L308.27,254.28 L311.47,259.43 L314.67,264.57" stroke="#FFFFFF" stroke-width="30" fill="none" stroke-linecap="round" stroke-linejoin="round"/>
  <path d="M310.00,326.47 L313.25,323.65 L316.50,320.56 L319.75,317.21 L323.00,313.60 L326.25,309.76 L329.50,305.71 L332.75,301.45 L336.00,297.00 L339.25,292.39 L342.50,287.63 L345.75,282.74 L349.00,277.74 L352.25,272.65 L355.50,267.50 L358.75,262.30 L362.00,257.07" stroke="#1E3B2A" stroke-width="50" fill="none" stroke-linecap="butt"/>
  <path d="M304.00,330.91 L307.20,328.67 L310.40,326.14 L313.60,323.33 L316.80,320.26 L320.00,316.94 L323.20,313.37 L326.40,309.58 L329.60,305.58 L332.80,301.38 L336.00,297.00 L339.20,292.46 L342.40,287.78 L345.60,282.97 L348.80,278.05 L352.00,273.05 L355.20,267.98 L358.40,262.86 L361.60,257.72 L364.80,252.57 L368.00,247.43" stroke="#FFFFFF" stroke-width="30" fill="none" stroke-linecap="round" stroke-linejoin="round"/>
  <path d="M363.33,185.53 L366.58,188.35 L369.83,191.44 L373.08,194.79 L376.33,198.40 L379.58,202.24 L382.83,206.29 L386.08,210.55 L389.33,215.00 L392.58,219.61 L395.83,224.37 L399.08,229.26 L402.33,234.26 L405.58,239.35 L408.83,244.50 L412.08,249.70 L415.33,254.93" stroke="#1E3B2A" stroke-width="50" fill="none" stroke-linecap="butt"/>
  <path d="M357.33,181.09 L360.27,183.13 L363.20,185.42 L366.13,187.94 L369.07,190.68 L372.00,193.65 L374.93,196.82 L377.87,200.18 L380.80,203.73 L383.73,207.45 L386.67,211.34 L389.60,215.37 L392.53,219.54 L395.47,223.83 L398.40,228.22 L401.33,232.71 L404.27,237.28 L407.20,241.90 L410.13,246.58 L413.07,251.28 L416.00,256.00" stroke="#FFFFFF" stroke-width="30" fill="none" stroke-linecap="round" stroke-linejoin="round"/>
</svg>
